# xmcd
# Copyright (C) 1995-1998 Ti Kan
#
# Track frame offsets:
#       150
#       14275
#       28040
#       43006
#       58974
#       76668
#       94136
#       111992
#       126244
#       140405
#       158271
#       174597
#       189947
#       206735
#       222237
#       237880
#       252982
#       274169
#       292571
#       310485
#       328178
#
# Disc length: 4595 seconds
#
# Revision: 0
# Processed by: cddbd v1.5.1PL2 Copyright (c) Steve Scherf et al.
# Submitted via: CD-Transfer v1.0
#
DISCID=2a11f115
DTITLE=Various  - 
DYEAR=05
DGENRE=
TTITLE0=US 5   Maria
TTITLE1=DJ Tomekk   Junp, Jump
TTITLE2=Gwen Stefani   Hollaback Girl
TTITLE3=Kool Savas and Azad   All 5 One
TTITLE4=Akon   Lonely
TTITLE5=Daniel Powter   Bad Day
TTITLE6=Backstreet Boys   Invomplete
TTITLE7=Ronan Keating   Baby Can I Hold You
TTITLE8=Kelly Clarkson   Since U Been Gone
TTITLE9=Marc Terenzi   Heat Between The Sheets
TTITLE10=Gavin Degraw   I Don't Want To Be
TTITLE11=Die Firma   Die Eine 2005
TTITLE12=Jansen and Kowalski   Wie Geil Ist Das Denn
TTITLE13=Jojo   Not That Kinda Girl
TTITLE14=Nelly   N Dey Say
TTITLE15=Mario   Here I Go Again
TTITLE16=Cassidy   I'm A Hustla
TTITLE17=The Game   Higher
TTITLE18=Amerie   1 Thing
TTITLE19=Bobby Valentino   Slow Down
TTITLE20=Sarah Connor   I Just Startet Being Bad
EXTD=
EXTT0=
EXTT1=
EXTT2=
EXTT3=
EXTT4=
EXTT5=
EXTT6=
EXTT7=
EXTT8=
EXTT9=
EXTT10=
EXTT11=
EXTT12=
EXTT13=
EXTT14=
EXTT15=
EXTT16=
EXTT17=
EXTT18=
EXTT19=
EXTT20=
PLAYORDER=
